<svg width="360" height="371" viewBox="0 0 360 371" fill="none" xmlns="http://www.w3.org/2000/svg">
<path fill-rule="evenodd" clip-rule="evenodd" d="M276.612 129.497C264.133 125.523 251.123 124.589 238.191 123.194C242.312 122.285 246.773 121.07 250.97 120.604C254.832 120.181 257.13 121.772 260.765 123.038C267.252 125.303 274.5 128.054 280.14 130.685C278.971 130.27 277.794 129.874 276.612 129.497V129.497ZM258.839 134.463C245.148 131.905 231.132 131.349 217.46 128.675C220.85 127.637 222.771 126.733 226.373 127.076C231.728 127.584 237.147 128.682 242.379 129.846C249.973 131.538 257.635 133.362 265.033 135.761C262.978 135.283 260.913 134.851 258.839 134.463V134.463ZM259.498 137.135C258.561 137.513 255.277 136.23 254.216 136C255.238 136.195 258.899 137.377 259.498 137.135ZM232.239 136.854C221.525 136.182 210.683 135.846 199.951 135.902C201.878 135.182 203.718 134.28 205.595 133.438C210.728 131.138 211.62 131.503 216.744 133.016C223.353 134.968 230.124 136.078 236.9 137.208C235.348 137.064 233.794 136.946 232.238 136.854L232.239 136.854ZM219.736 143.031C204.946 144.153 190.357 145.945 175.593 147.599C178.745 146.326 181.775 144.705 184.787 143.141C189.435 140.728 193.003 141.068 198.185 141.067C203.688 141.063 209.093 141.71 214.564 142.332C215.914 142.487 221.2 142.919 219.736 143.031V143.031ZM196.948 131.793C204.844 124.125 213.903 116.98 223.184 111.008C229.074 107.216 235.48 102.935 242.402 106.222C230.954 106.698 215.998 117.081 209.222 125.98C208.897 126.401 208.4 126.693 208.061 127.108C206.789 128.651 208.174 128.82 207.309 129.77C207.208 129.881 202.583 131.77 203.196 131.517C200.059 132.812 196.848 133.898 193.706 135.175C194.769 134.03 195.848 132.901 196.948 131.793L196.948 131.793ZM240.996 113.422C233.224 119.922 224.792 123.381 215.43 126.643C223.98 121.145 232.552 116.648 241.949 112.71C241.631 112.946 241.313 113.183 240.997 113.422L240.996 113.422ZM250.668 115.651C252.288 115.132 253.011 115.267 253.371 117.19C249.185 117.032 247.197 117.605 243.241 118.566C245.646 117.423 248.128 116.45 250.668 115.651V115.651ZM255.805 116.701C255.514 116.173 255.389 115.164 255.186 114.649C258.294 114.599 260.933 115.256 263.574 116.885C262.7 116.893 256.021 117.664 255.805 116.7L255.805 116.701ZM129.774 188.852C152.495 186.045 174.286 185.312 197.105 187.536C179.914 189.044 162.65 192.498 145.733 195.852C132.151 198.545 118.378 200 104.757 202.434C107.281 199.806 109.641 197.024 112.212 194.435C116.678 189.939 123.369 189.652 129.774 188.852V188.852ZM207.889 195.542C211.991 195.122 216.083 194.613 220.163 194.015C224.598 193.361 231.672 190.437 236.135 191.317C211.77 198.55 185.442 201.884 160.395 205.961C149.984 207.655 139.385 210.133 129.3 213.275C114.739 217.81 98.3147 217.788 84.4176 224.159C88.6677 219.705 93.3227 213.334 98.1647 209.712C101.684 207.078 107.521 206.858 111.708 206.305C118.602 205.396 125.529 204.689 132.44 203.946C157.6 201.234 182.719 198.174 207.889 195.542V195.542ZM80.4783 219.668C78.4341 221.917 76.4446 224.216 74.5113 226.561C78.0205 210.102 77.8629 192.744 79.8397 176.034C80.9576 166.586 82.0066 157.032 83.5099 147.646C84.8391 139.359 85.1932 128.067 89.6365 120.907C92.9525 123.987 95.404 127.256 94.7452 131.733C93.8979 137.49 91.418 143.024 90.2645 148.736C88.9685 155.154 88.091 161.688 87.2898 168.185C86.0574 178.179 85.7697 188.345 86.2978 198.393C86.4405 201.218 86.622 204.04 86.8422 206.86C86.9388 208.091 87.576 210.187 87.3045 211.337C86.6412 214.166 82.6166 217.3 80.4783 219.668V219.668ZM104.981 151.136C106.929 141.887 108.116 131.141 112.167 122.471C114.416 117.654 116.579 115.938 119.938 121.143C122.336 124.856 118.569 133.008 117.382 137.676C114.015 150.921 112.237 164.512 110.009 177.98C109.427 181.509 109.255 184.998 108.879 188.532C108.566 191.46 108.647 191.286 106.96 193.492C105.875 194.916 104.164 196.127 102.856 197.376C99.4267 200.654 95.9502 203.888 92.5566 207.202C97.7198 188.731 101.041 169.883 104.981 151.136V151.136ZM359.002 193.145C355.873 188.983 351.905 185.231 347.845 182.016C342.222 177.556 335.336 174.949 329.72 170.66C324.997 167.05 321.096 162.246 316.269 158.591C308.601 152.788 300.71 147.963 291.731 144.476C303.166 148.378 314.133 153.076 323.294 161.173C324.068 161.859 330.777 170.449 332.166 169.629C333.116 169.074 329.09 162.856 328.251 161.408C322.061 150.76 309.358 143.947 299.32 137.109C287.983 129.386 275.603 125.054 262.687 120.782C274.422 121.431 284.308 124.444 294.139 131.047C298.974 134.293 303.448 138.085 308.432 141.098C312.85 143.771 317.094 146.234 320.907 149.82C325.178 153.84 328.609 158.219 331.443 163.354C332.508 165.285 337.71 176.978 337.85 169.551C337.919 165.891 333.297 160.675 331.426 158.031C328.271 153.575 324.612 149.562 320.782 145.682C314.267 139.088 308.049 132.244 300.316 127.042C295.918 124.081 291.312 121.735 286.28 120.044C282.394 118.737 278.405 117.798 274.327 117.336C270.455 116.898 270.082 116.945 267.001 114.944C264.353 113.224 262.093 111.383 259.13 110.155C256.111 108.904 253.541 108.724 251.295 107.017C248.645 104.997 247.617 102.629 244.198 101.365C241.054 100.202 237.837 100.458 234.557 100.72C223.71 101.584 212.697 104.335 203.722 110.751C195.791 116.422 190.399 125.473 186.565 134.298C184.448 139.167 185.885 138.985 180.2 141.784C174.223 144.727 168.281 147.62 162.466 150.904C172.053 138.987 180.388 125.793 190.899 114.624C196.52 108.659 202.032 102.596 207.651 96.6344C209.31 94.8776 222.412 82.223 215.053 82.6719C213.351 82.7747 210.792 85.0491 209.228 85.7958C206.107 87.2938 203.008 88.6212 200.123 90.5788C195.122 93.9724 191.04 98.1944 186.951 102.586C176.358 113.96 166.81 126.126 161.922 141.061C160.764 144.596 160.341 148.58 158.527 151.822C157.25 154.11 155.75 154.9 153.156 156.591C148.707 159.484 144.383 162.458 140.17 165.693C150.943 149.738 157.892 131.884 166.38 114.704C177.298 92.616 182.293 67.8266 191.476 45.0047C193.257 40.5781 195.427 35.7071 198.416 31.9393C199.325 30.7934 202.198 29.0756 202.449 27.6308C203.112 23.8194 200.53 24.8427 198.635 25.9388C193.99 28.6239 189.48 34.6803 186.306 38.7628C181.686 44.7007 177.008 51.1422 173.006 57.5399C159.221 79.5749 150.081 104.58 142.49 129.329C138.918 140.963 135.234 152.789 133.476 164.854C132.629 170.68 133.592 170.836 128.725 174.823C123.642 178.989 118.784 183.408 113.741 187.615C118.337 178.178 121.076 166.475 124.392 156.464C127.865 145.976 131.814 135.646 135.343 125.173C141.083 108.132 145.378 90.6849 149.511 73.2011C151.706 63.9053 153.763 54.6023 155.644 45.2409C158.062 33.2111 160.521 19.3204 165.913 8.22349C166.717 6.57309 169.985 -1.09518 165.257 1.54598C163.091 2.75341 160.524 10.6551 159.418 12.7856C153.154 24.8848 147.877 37.1698 143.163 49.9461C134.806 72.6004 128.941 95.8155 122.32 118.982C119.01 114.462 112.137 109.487 106.198 111.411C100.864 113.139 98.2402 120.733 96.5619 125.489C96.3755 122.198 92.3383 116.06 89.1907 115.85C87.4022 115.731 84.32 117.425 82.8243 118.133C79.1266 119.881 74.9264 122.092 72.6202 125.533C67.8938 132.592 68.7904 143.67 67.9506 151.84C65.4498 176.203 65.8979 199.728 68.652 223.991C69.2812 229.544 70.0417 232.119 66.8828 236.495C63.2747 241.496 59.7962 246.412 56.2436 251.106C57.3851 248.931 56.3535 242.287 56.3403 239.968C56.3037 233.759 56.3673 227.601 56.6896 221.396C57.3511 208.617 56.6653 195.408 56.0214 182.62C54.6957 156.273 54.8163 130.26 55.7046 103.92C55.8906 98.3686 55.7657 92.8522 55.7317 87.3045C55.7174 85.0141 56.4753 79.4032 52.8374 80.7446C51.781 81.1337 51.0037 85.2303 50.6969 86.2693C47.8631 95.8466 46.9735 106.207 45.6756 116.043C44.4964 124.99 43.419 133.95 42.6716 142.94C41.2356 160.211 41.7098 176.982 41.7973 194.282C41.8707 208.533 43.4158 224.026 46.0501 237.173C47.2855 243.339 49.4326 250.002 50.0581 256.216C50.4375 259.958 48.2476 261.345 45.7329 264.742C43.1882 268.179 40.6747 271.641 38.2461 275.16C38.4802 269.768 36.9433 264.193 36.5826 258.797C36.2804 254.29 35.9939 249.804 35.588 245.301C35.2653 241.755 34.9612 238.206 34.647 234.656C33.0275 216.388 31.446 198.159 28.4568 180.059C23.8614 152.263 18.8487 123.697 19.0345 95.4194C19.0714 90.0226 19.2457 84.6296 19.3082 79.2315C19.3541 75.1629 18.9801 71.1265 18.9563 67.0636C18.9438 64.9915 19.888 60.9848 19.1969 58.9201C17.1974 52.9461 15.4652 59.6214 15.4096 62.3649C15.3814 63.8104 15.2948 65.2517 15.2727 66.6966C15.1391 75.7756 14.3576 84.7304 13.9092 93.7992C13.2661 106.876 13.8406 119.887 14.2749 132.956C14.7492 147.194 14.3928 161.528 15.9232 175.713C17.8971 193.997 21.8499 212.174 24.3308 230.409C25.4103 238.351 26.9161 246.204 27.7332 254.183C28.4951 261.639 31.1415 268.969 32.7535 275.857L32.7445 275.329C33.3691 278.257 34.3494 279.721 33.4596 282.407C32.8323 284.295 31.1114 286.279 30.0807 288.013C27.8825 291.701 25.7725 295.431 23.662 299.169C25.5325 289.681 22.9971 277.711 20.9899 268.391C18.7714 258.078 16.0678 247.516 12.9029 237.459C10.4418 229.638 8.40523 221.951 7.66194 213.81C6.67174 202.967 3.72316 192.541 2.13792 181.799C0.642255 171.658 -1.87658 161.615 -4.02323 151.576C-4.50682 149.316 -6.66524 138.506 -10.1768 143.382C-11.0426 144.586 -9.98141 147.781 -9.84538 149.024C-9.51118 152.104 -9.30293 155.135 -9.16471 158.227C-8.26857 177.858 -4.15743 197.787 -0.935046 217.128C1.12406 229.487 3.30461 241.889 6.31381 254.052C8.6573 263.522 9.92285 273.362 12.5223 282.699C13.7691 287.177 15.0354 291.756 17.0279 295.961C18.7612 299.62 20.5086 300.643 19.8971 304.586C19.0216 310.225 14.2213 316.078 12.0551 321.537C10.2834 326 8.47679 330.47 6.78874 334.964C4.43059 341.26 2.2207 347.667 0.151784 354.061C-1.04901 357.765 -3.37826 362.546 -3.59636 366.313C-3.92867 372.035 -0.689894 370.399 1.0109 366.571C2.15498 363.995 3.06845 361.225 4.14455 358.605C12.0404 339.415 19.27 318.839 31.0597 301.619C35.9776 294.428 49.5719 292.696 57.5481 290.189C76.7359 284.15 97.4928 283.353 117.402 281.147C133.455 279.37 149.249 277.737 164.965 273.788C167.261 273.214 209.154 260.879 208.103 258.728C208.69 259.935 162.271 270.266 158.554 270.57C146.896 271.52 135.276 271.775 123.593 272.269C94.3712 273.506 65.628 274.208 39.0754 288.016C42.4261 282.746 46.4342 272.797 52.3158 270.757C63.6515 266.819 75.5985 264.275 87.0188 260.435C98.8907 256.45 111.082 253.779 123.024 250.086C134.952 246.395 146.854 242.573 158.963 239.469C171.135 236.351 183.709 233.1 196.357 233.501C201.225 233.656 206.107 234.088 210.954 234.546C212.785 234.719 227.356 237.412 219.477 234.066C214.375 231.897 207.695 231.73 202.229 230.934C195.961 230.025 189.953 229.217 183.618 229.266C169.825 229.373 155.968 232.607 142.635 235.807C126.677 239.634 110.066 243.432 94.8332 249.591C80.8727 255.237 66.8407 260.657 52.8796 266.232C55.4184 262.346 58.1184 258.576 60.7598 254.759C62.0425 252.903 63.396 249.889 65.2174 248.622C67.9972 246.685 73.8463 246.182 77.0749 245.106C90.0653 240.787 103.115 235.714 116.426 232.501C137.829 227.334 159.74 224.128 181.276 219.53C193.845 216.848 207.154 214.482 220.005 214.711C224.839 214.799 229.679 214.623 234.426 215.644C236.105 216.003 238.219 216.933 239.948 217.129C245.123 217.709 241.284 215.221 238.145 214.133C213.266 205.519 185.843 212.405 160.765 215.91C144.179 218.226 127.806 220.587 111.97 226.293C97.3793 231.548 83.4296 238.557 68.5961 243.171C72.4839 237.647 75.95 231.925 82.1617 228.886C89.0357 225.525 96.2809 224.063 103.783 222.788C119.38 220.131 134.873 216.729 150.52 214.414C164.895 212.291 179.243 210.406 193.492 207.508C207.365 204.682 221.157 203.031 234.399 197.691C238.591 196 243.674 193.069 248.15 192.813C253.952 192.483 260.977 194.221 266.666 195.082C280.522 197.177 294.905 199.337 307.714 205.202C320.281 210.958 328.816 220.004 338.437 229.461C341.468 232.445 344.45 235.479 347.473 238.471C348.146 239.139 352.163 244.147 352.991 244.21C358.115 244.594 348.449 234.438 346.781 232.357C335.254 217.976 322.78 205.983 305.822 198.148C291.37 191.469 276.261 187.126 260.501 184.902C260.541 182.053 272.152 181.912 272.47 178.961C272.892 175.025 264.767 178.963 263.157 179.448C260.099 180.365 257.125 181.514 254.052 182.383C246.996 184.377 239.19 181.921 232.023 181.001C223.381 179.896 214.625 179.172 205.934 178.649C177.164 176.914 149.56 177.869 121.616 185.578C126.63 181.186 131.861 177.011 137.161 172.97C139.225 171.397 140.798 169.956 143.136 169.218C147.084 167.97 151.772 168.528 155.888 168.124C172.16 166.538 188.358 164.754 204.72 164.252C231.646 163.425 259.721 168.258 285.256 176.818C297.714 180.996 309.936 185.059 320.753 192.75C323.258 194.527 325.485 196.568 327.761 198.623C328.702 199.472 334.446 205.649 334.738 205.617C337.23 205.351 325.676 192.566 323.997 190.933C301.436 169.004 272.161 164.018 242.268 159.615C211.008 155.01 179.631 157.456 148.835 164.404C154.985 160.567 161.029 153.992 167.932 151.76C173.176 150.064 179.832 150.386 185.139 149.843C200.526 148.26 216.655 150.947 232.077 152.039C249.498 153.272 266.421 155.506 283.264 160.147C291.882 162.522 300.274 165.036 308.683 168.12C315.347 170.564 320.784 172.069 326.175 176.535C328.35 178.353 334.821 183.18 338.322 186.463C339.75 187.804 341.229 190.636 342.843 191.309C348.855 193.817 340.876 184.022 339.566 182.321C344.345 185.177 348.806 188.482 353.049 192.002C353.888 192.701 354.691 193.233 355.541 193.87C356.538 194.621 357.061 196.812 358.769 196.082C360.16 195.484 359.666 194.051 359.002 193.145" fill="#012A32"/>
</svg>
